# xmcd
#
# Track frame offsets: 
#        150
#        22670
#        42818
#        62431
#        79068
#        106751
#        128991
#        154025
#        166687
#        183455
#        192843
#        215659
#
# Disc length: 2970 seconds
#
# Revision: 0
# Processed by: cddbd v1.5.2PL0 Copyright (c) Steve Scherf et al.
# Submitted via: ExactAudioCopy v1.0b4
#
DISCID=8d0b980c
DTITLE=Albert White - Albert White And The Rockers
DYEAR=2016
DGENRE=Blues
TTITLE0=Get Up Get Down Get Funky
TTITLE1=She Used To Be My Girl
TTITLE2=A Song For You
TTITLE3=Sing A Song
TTITLE4=Funny How Time Slips Away
TTITLE5=All Night Long
TTITLE6=Stranded In St. Loius
TTITLE7=Be Young Be Foolish Be Happy
TTITLE8=Please Come Home For Xmas
TTITLE9=There Was A Way
TTITLE10=Hideaway
TTITLE11=Jesus In The Building
EXTD=
EXTT0=
EXTT1=
EXTT2=
EXTT3=
EXTT4=
EXTT5=
EXTT6=
EXTT7=
EXTT8=
EXTT9=
EXTT10=
EXTT11=
PLAYORDER=
